#N canvas 0 22 450 300 10;
#X obj 202 127 bng 15 250 50 0 empty empty empty 17 7 0 10 -262144
-1 -1;
#X obj 241 128 bng 15 250 50 0 empty empty empty 17 7 0 10 -262144
-1 -1;
#X obj 203 79 -1;
#X obj 202 104 moses 1;
#X obj 204 41 inlet;
#X obj 199 173 outlet;
#X obj 246 178 outlet;
#X connect 0 0 5 0;
#X connect 1 0 6 0;
#X connect 2 0 3 0;
#X connect 3 0 0 0;
#X connect 3 1 1 0;
#X connect 4 0 2 0;
