#N canvas 280 114 1171 646 10;
#X obj 929 145 vsl 15 128 2 10000 0 0 Release rrelease R 5 -9 0 10
-262144 -1 -1 10542 1;
#X obj 855 147 vsl 15 128 1.5 4000 0 0 Attack rattack A 5 -9 0 10 -262144
-1 -1 4555 1;
#X obj 879 146 vsl 15 128 2 3000 0 0 Decay rdecay D 5 -9 0 10 -262144
-1 -1 1851 1;
#X obj 903 146 vsl 15 128 0 1 0 0 Sustain rsustain S 5 -9 0 10 -262144
-1 -1 3683 1;
#X obj 959 145 vsl 15 128 0 1 0 0 volume empty empty 0 -9 0 10 -262144
-1 -1 12700 1;
#X text 954 101 VOL;
#X text 856 98 ENV;
#X text 129 137 TUNE;
#X obj 115 191 knob 50 50 0.5 2 0 0 tune empty empty 0 -8 0 8 -262144
-1 -1 4900 1;
#X obj 180 163 vsl 15 128 0.1 30 0 0 lfo_freq rlfo empty 0 -9 0 10
-262144 -1 -1 4885 1;
#X text 198 103 MODULATOR;
#X text 209 135 WAVE FORM;
#X text 200 156 tr/sq/rnd/ns;
#X obj 474 155 vsl 15 128 0 1 0 0 empty rsaw empty 0 -9 0 10 -262144
-1 -1 1651 1;
#X obj 451 155 vsl 15 128 0 1 0 0 sqr rsqr empty 0 -9 0 10 -262144
-1 -1 381 1;
#X obj 377 158 vsl 15 128 0.5 0.99 0 0 pwmknob pwm empty 0 -9 0 10
-262144 -1 -1 10627 1;
#X obj 293 149 vsl 15 128 0 200 0 0 modr rvcomod empty 0 -9 0 10 -262144
-1 -1 7747 1;
#X obj 314 188 hradio 15 1 0 4 band empty empty 0 -8 0 10 -262144 -1
-1 0;
#X text 313 163 16/8/4/2;
#X text 289 130 MOD;
#X text 357 131 PULSE WIDTH;
#X obj 398 182 vradio 15 1 0 3 pwm_source rpwmsource empty 0 -8 0 10
-262144 -1 -1 0;
#X text 414 181 LFO;
#X text 416 197 MAN;
#X text 414 211 ENV;
#X text 183 142 comment;
#X text 175 132 LFO;
#X text 343 102 VCO;
#X text 447 130 SQ;
#X text 470 130 RMP;
#X obj 497 154 vsl 15 128 0 1 0 0 sub_lvl rsub empty 0 -9 0 10 -262144
-1 -1 762 1;
#X text 509 129 SUB OSC;
#X text 538 211 3dwn;
#X text 539 196 2dwn;
#X text 538 177 1dwn;
#X obj 574 154 vsl 15 128 0 1 0 0 noise rnoise empty 0 -9 0 10 -262144
-1 -1 7874 1;
#X text 564 129 NOISE;
#X text 470 101 SOURCE MIXER;
#X obj 617 156 vsl 15 128 10 8000 0 0 freq rfreq empty 0 -9 0 10 -262144
-1 -1 7002 1;
#X obj 650 155 vsl 15 128 0 5 0 0 res rres empty 0 -9 0 10 -262144
-1 -1 6858 1;
#X obj 687 154 vsl 15 128 0 1 0 0 empty renv empty 0 -9 0 10 -262144
-1 -1 12319 1;
#X obj 712 155 vsl 15 128 0 1 0 0 mod rmod empty 0 -9 0 10 -262144
-1 -1 2540 1;
#X obj 738 155 vsl 15 128 0 1 0 0 empty rkybd empty 0 -9 0 10 -262144
-1 -1 6096 1;
#X text 613 129 FREQ;
#X text 646 129 RES;
#X text 682 129 ENV;
#X text 706 127 MOD;
#X text 730 128 KYBD;
#X obj 833 189 vradio 15 1 0 2 gatelfo rgatelfo empty 0 -8 0 10 -262144
-1 -1 0;
#X text 803 204 LFO;
#X text 803 186 GATE;
#X text 653 99 VCF;
#X text 765 100 VCA;
#X obj 785 190 vradio 15 1 0 2 empty renvgate empty 0 -8 0 10 -262144
-1 -1 1;
#X text 760 187 ENV;
#X text 756 202 GATE;
#X obj 459 406 phasor~ 440;
#X obj 459 429 *~;
#X obj -178 521 *~;
#X obj 656 -21 expr~ $v1 > 0.5;
#X obj 656 25 *~;
#X obj 655 -42 phasor~;
#X obj 512 613 moog~;
#X msg 654 -92 2;
#X obj 655 -67 expr~ $v1/$v2;
#X msg 681 -93 4;
#X msg 711 -92 8;
#X obj 520 181 vradio 15 1 0 3 sub_oct rsuboct empty 0 -8 0 10 -262144
-1 -1 2;
#X obj 605 -20 noise~;
#X obj 590 1 *~;
#X obj 911 -30 loadbang;
#X obj 207 174 hradio 15 1 0 4 wave_form rlfowave empty 0 -8 0 10 -262144
-1 -1 0;
#X obj 78 504 +~;
#X obj 78 457 *~;
#X obj 758 452 *~;
#X obj 758 504 dac~;
#X obj -178 456 phasor~;
#X obj -178 480 expr~ $v1 > $v2;
#X floatatom 25 521 5 0 0 0 - - -;
#X msg -26 554 1;
#X msg -71 555 0;
#X obj 10 565 / 2;
#X obj 124 470 4switch~;
#X obj -71 531 2switch~;
#X obj 654 -119 4switch~;
#X obj 818 -100 mtof;
#X floatatom 818 -72 5 0 0 0 - - -;
#X msg 154 491 1;
#X obj 105 535 *~;
#X msg 139 510 0.5;
#X msg 120 490 0.25;
#X msg 170 510 2;
#X obj 887 327 adsr1;
#X obj 919 55 adsr1;
#X msg 890 14 10;
#X msg 918 13 2000;
#X msg 983 16 10;
#X msg 951 14 1;
#X msg 109 358 440;
#X obj -91 414 switch4~;
#X obj 883 361 switch4~;
#X msg 518 69 0;
#X obj 105 559 s~ pitch;
#X obj 458 379 r~ pitch;
#X obj 599 -91 r~ pitch;
#X obj 512 490 r res;
#X obj 591 -41 r noise;
#X obj 654 -141 r sub_oct;
#X obj 671 2 r sub_lvl;
#X text 602 -116 SUB OCT;
#X text 464 -82 NOISE;
#X obj -178 432 r~ pitch;
#X obj -72 481 s pwm;
#X obj -163 501 r sqr;
#X obj -92 367 r pwm_source;
#X obj -71 -11 phasor~;
#X obj -71 11 expr~ $v1 > $v2;
#X obj -108 90 switch4~;
#X obj -209 113 r wave_form;
#X obj -66 -143 r lfo_freq;
#X msg -34 -39 0.5;
#X obj -71 33 *~ 2;
#X obj -71 56 -~ 1;
#X obj -30 63 LFO_noise~;
#X obj 641 47 +~;
#X obj -71 582 metro;
#X floatatom 10 587 5 0 0 0 - - -;
#X obj 10 544 /;
#X floatatom 37 561 5 0 0 0 - - -;
#X obj -71 603 tgl 15 0 empty empty empty 17 7 0 10 -262144 -1 -1 0
1;
#X obj 851 -72 tgl 15 0 empty empty empty 17 7 0 10 -262144 -1 -1 0
1;
#X obj 856 -48 * 127;
#X obj 758 477 *~;
#X obj 820 396 /~ 2;
#X obj 820 420 +~ 0.5;
#X obj -32 348 *~;
#X obj 819 445 s~ pwmenv;
#X obj -134 342 4switch~;
#X obj -134 365 bng 15 250 50 0 empty empty empty 17 7 0 10 -262144
-1 -1;
#X msg -134 386 0.5;
#X obj -32 301 r~ pwmenv;
#X obj 361 341 s~ pwmlfo;
#X obj 94 384 *~;
#X obj -144 -121 * -1;
#X msg -70 -122 0;
#X obj -193 -78 phasor~;
#X obj -129 -80 phasor~;
#X obj -192 -58 *~ 2;
#X obj -192 -37 -~ 1;
#X obj -193 -16 clip~ 0 1;
#X obj -129 -60 *~ 2;
#X obj -130 -38 -~ 1;
#X obj -131 -17 clip~ 0 1;
#X obj -146 5 +~;
#X obj -146 26 *~ 2;
#X obj -146 47 -~ 1;
#X floatatom 42 111 5 0 0 0 - - -;
#X obj 26 -118 random 100;
#X obj 26 -98 / 100;
#X obj 26 -55 * 2;
#X obj 0 198 metro;
#X obj 27 152 /;
#X obj 0 178 tgl 15 0 empty empty empty 17 7 0 10 -262144 -1 -1 0 1
;
#X obj 0 222 tgl 15 0 empty empty empty 17 7 0 10 -262144 -1 -1 0 1
;
#X obj 27 174 / 2;
#X floatatom 26 -76 5 0 0 0 - - -;
#X obj 0 -144 bng 15 250 50 0 empty empty empty 17 7 0 10 -262144 -1
-1;
#X obj 27 -35 - 1;
#X floatatom 28 -11 5 0 0 0 - - -;
#X obj 28 10 sig~;
#X msg 27 130 1000;
#X msg -10 521 1000;
#X obj -72 274 +~ 1;
#X obj -72 348 *~;
#X obj -72 298 /~ 2;
#X obj 851 -94 bng 15 250 50 0 empty empty empty 17 7 0 10 -262144
-1 -1;
#X obj 818 -123 notein;
#X text 391 206 -1;
#X msg 617 77 20000;
#X obj 578 543 *~;
#X obj 687 306 * -1;
#X msg 687 355 0;
#X msg 687 376 1;
#X msg 713 355 0;
#X msg 714 376 1;
#X obj 600 450 *~;
#X obj 820 340 *~ 2;
#X obj 821 361 -~ 1;
#X obj 591 495 *~;
#X obj 577 519 +~;
#X obj 591 471 /~;
#X obj 618 380 *~ 2;
#X msg 115 78 2;
#X obj 590 381 *~;
#X obj 590 427 +~;
#X obj 590 405 *~ 4000;
#X floatatom 412 -114 5 0 0 0 - - -;
#X msg -50 161 1;
#X msg -31 161 0;
#X obj 412 -92 * -1;
#X obj 412 -70 + 127;
#X obj 412 -49 / 127;
#X obj 398 -4 *;
#X floatatom 412 -26 5 0 0 0 - - -;
#X floatatom 398 17 5 0 0 0 - - -;
#X obj 315 10 -;
#X floatatom 315 32 5 0 0 0 - - -;
#X obj 396 40 *;
#X obj 281 -55 bng 15 250 50 0 empty empty empty 17 7 0 10 -262144
-1 -1;
#X obj 280 -75 metro 100;
#X obj 93 429 r modr;
#X obj -166 164 s~ lfo;
#X obj -72 252 r~ lfo;
#X obj 78 408 r~ lfo;
#X obj -57 324 r pwmout;
#X obj -71 623 s clock;
#X obj 935 -134;
#X obj 905 -115 r clock;
#X text -39 600 CLOCK;
#X obj -10 499 r lfo_freq;
#X obj -71 509 r gatelfo;
#X obj 411 500 r~ sqrwave;
#X obj -178 544 s~ sqrwave;
#X obj 592 327 +~ 1;
#X obj 592 351 /~ 2;
#X obj 592 305 r~ lfo;
#X obj -52 390 r~ pwmknob;
#X obj 377 306 s~ pwmknob;
#X text -94 -59 comment;
#X text -34 28 comment;
#X obj 27 89 r lfo_freq;
#X obj -134 317 * 1.9999;
#X obj -134 296 r pwmknb;
#X obj -34 -63 loadbang;
#X obj 94 337 r tune;
#X obj 124 449 r band;
#X obj 109 316 loadbang;
#X obj 138 358 r note;
#X obj 805 -46 s note;
#X text -180 409 SQR PWM;
#X text -18 111 LFO;
#X obj 687 331 moses 0;
#N canvas 666 184 1035 690 randomer 1;
#X obj 494 21 bng 15 250 50 0 empty empty empty 17 7 0 10 -262144 -1
-1;
#X floatatom 24 154 5 0 0 0 - - -;
#X obj 25 124 / 10;
#X obj 24 95 random 300;
#X text 24 70 LFO RATE;
#X text 117 64 LFO WAVE;
#X floatatom 111 124 5 0 0 0 - - -;
#X text 200 59 VCO MOD;
#X obj 184 96 random 200;
#X floatatom 179 124 5 0 0 0 - - -;
#X obj 277 97 random 49;
#X obj 277 120 + 50;
#X obj 277 142 / 100;
#X floatatom 275 166 5 0 0 0 - - -;
#X text 281 72 PULSE WIDTH;
#X text 372 73 PWM SOURCE;
#X floatatom 375 127 5 0 0 0 - - -;
#X obj 23 184 s rlfo;
#X obj 93 189 s rlfowave;
#X obj 111 96 random 4;
#X obj 175 192 s rvcomod;
#X obj 270 197 s rpulsewidth;
#X obj 375 100 random 3;
#X obj 367 193 s rpwmsource;
#X obj 468 195 s rsqr;
#X obj 472 98 random 101;
#X obj 477 127 / 100;
#X floatatom 480 154 5 0 0 0 - - -;
#X text 465 75 SQR;
#X obj 528 196 s rsaw;
#X obj 547 97 random 101;
#X obj 547 125 / 100;
#X floatatom 549 152 5 0 0 0 - - -;
#X text 545 74 SAW;
#X text 629 76 SUB;
#X obj 632 96 random 101;
#X obj 632 124 / 100;
#X floatatom 634 151 5 0 0 0 - - -;
#X obj 593 194 s rsub;
#X floatatom 727 126 5 0 0 0 - - -;
#X obj 727 99 random 3;
#X obj 658 194 s rsuboct;
#X text 728 75 SUB OCT;
#X obj 814 90 random 101;
#X obj 814 118 / 100;
#X floatatom 816 145 5 0 0 0 - - -;
#X obj 740 197 s rnoise;
#X text 821 69 NOISE;
#X floatatom 27 334 5 0 0 0 - - -;
#X obj 26 364 s rfreq;
#X text 26 242 FREQ;
#X obj 27 275 random 7991;
#X obj 28 304 + 10;
#X floatatom 105 329 5 0 0 0 - - -;
#X obj 104 359 s rres;
#X obj 105 270 random 51;
#X obj 106 299 / 10;
#X text 107 246 RES;
#X obj 176 269 random 101;
#X obj 176 297 / 100;
#X floatatom 178 324 5 0 0 0 - - -;
#X obj 178 355 s renv;
#X text 173 249 ENV;
#X obj 255 270 random 101;
#X obj 255 298 / 100;
#X floatatom 257 325 5 0 0 0 - - -;
#X text 253 250 MOD;
#X obj 257 356 s rmod;
#X obj 331 270 random 101;
#X obj 331 298 / 100;
#X floatatom 333 325 5 0 0 0 - - -;
#X obj 333 356 s rkybd;
#X text 329 250 KYBD;
#X floatatom 405 303 5 0 0 0 - - -;
#X obj 405 276 random 2;
#X obj 402 357 s renvgate;
#X text 404 252 ENV/GATE;
#X floatatom 476 308 5 0 0 0 - - -;
#X obj 476 281 random 2;
#X obj 475 361 s rgatelfo;
#X text 475 257 GATE/LFO;
#X floatatom 546 341 5 0 0 0 - - -;
#X obj 546 282 random 4000;
#X obj 547 311 + 1.5;
#X obj 545 371 s rattack;
#X text 549 255 ATTACK;
#X floatatom 626 343 5 0 0 0 - - -;
#X obj 627 313 + 2;
#X obj 627 283 random 2999;
#X obj 625 373 s rdecay;
#X text 629 257 DECAY;
#X obj 705 281 random 101;
#X obj 705 309 / 100;
#X floatatom 707 336 5 0 0 0 - - -;
#X obj 707 367 s rsustain;
#X text 703 261 SUSTAIN;
#X floatatom 794 337 5 0 0 0 - - -;
#X obj 795 307 + 2;
#X obj 794 367 s rrelease;
#X obj 795 277 random 9999;
#X text 797 251 RELEASE;
#X obj 28 496 print;
#X obj 94 452 pack f f f f f f f f f f f f f f f f f f f f f f;
#X obj 420 20 bng 15 250 50 0 empty empty empty 17 7 0 10 -262144 -1
-1;
#X obj 66 520 textfile;
#X msg 139 510 clear;
#X obj 58 546 print list;
#X msg 87 476 add \$2 \$3 \$4 \$5 \$6 \$7 \$8 \$9 \$10 \$11 \$12 \$13
\$14 \$15 \$16 \$17 \$18 \$19 \$20 \$21 \$22;
#X obj 541 477 print;
#X obj 614 442 pack f f f f f f f f f f f f f f f f f f f f f f;
#X obj 571 20 bng 15 250 50 0 empty empty empty 17 7 0 10 -262144 -1
-1;
#X obj 586 510 textfile;
#X msg 659 500 clear;
#X obj 578 536 print list;
#X msg 607 466 add \$2 \$3 \$4 \$5 \$6 \$7 \$8 \$9 \$10 \$11 \$12 \$13
\$14 \$15 \$16 \$17 \$18 \$19 \$20 \$21 \$22;
#X text 472 1 RANDOMIZE!;
#X text 560 2 BAD;
#X text 411 -1 GOOD;
#X obj 892 188 delay 5;
#X obj 652 20 bng 15 250 50 0 empty empty empty 17 7 0 10 -262144 -1
-1;
#X text 646 4 SAVE;
#X msg 161 536 write good.txt cr;
#X msg 683 525 write bad.txt cr;
#X connect 0 0 3 0;
#X connect 0 0 8 0;
#X connect 0 0 10 0;
#X connect 0 0 19 0;
#X connect 0 0 22 0;
#X connect 0 0 25 0;
#X connect 0 0 30 0;
#X connect 0 0 35 0;
#X connect 0 0 40 0;
#X connect 0 0 43 0;
#X connect 0 0 51 0;
#X connect 0 0 55 0;
#X connect 0 0 58 0;
#X connect 0 0 63 0;
#X connect 0 0 68 0;
#X connect 0 0 74 0;
#X connect 0 0 78 0;
#X connect 0 0 82 0;
#X connect 0 0 88 0;
#X connect 0 0 91 0;
#X connect 0 0 99 0;
#X connect 1 0 17 0;
#X connect 1 0 102 1;
#X connect 1 0 109 1;
#X connect 2 0 1 0;
#X connect 3 0 2 0;
#X connect 6 0 18 0;
#X connect 6 0 102 2;
#X connect 6 0 109 2;
#X connect 8 0 9 0;
#X connect 9 0 20 0;
#X connect 9 0 102 3;
#X connect 9 0 109 3;
#X connect 10 0 11 0;
#X connect 11 0 12 0;
#X connect 12 0 13 0;
#X connect 13 0 21 0;
#X connect 13 0 102 4;
#X connect 13 0 109 4;
#X connect 16 0 23 0;
#X connect 16 0 102 5;
#X connect 16 0 109 5;
#X connect 19 0 6 0;
#X connect 22 0 16 0;
#X connect 25 0 26 0;
#X connect 26 0 27 0;
#X connect 27 0 24 0;
#X connect 27 0 102 6;
#X connect 27 0 109 6;
#X connect 30 0 31 0;
#X connect 31 0 32 0;
#X connect 32 0 29 0;
#X connect 32 0 102 7;
#X connect 32 0 109 7;
#X connect 35 0 36 0;
#X connect 36 0 37 0;
#X connect 37 0 38 0;
#X connect 37 0 102 8;
#X connect 37 0 109 8;
#X connect 39 0 41 0;
#X connect 39 0 102 9;
#X connect 39 0 109 9;
#X connect 40 0 39 0;
#X connect 43 0 44 0;
#X connect 44 0 45 0;
#X connect 45 0 46 0;
#X connect 45 0 102 10;
#X connect 45 0 109 10;
#X connect 48 0 49 0;
#X connect 48 0 102 11;
#X connect 48 0 109 11;
#X connect 51 0 52 0;
#X connect 52 0 48 0;
#X connect 53 0 54 0;
#X connect 53 0 102 12;
#X connect 53 0 109 12;
#X connect 55 0 56 0;
#X connect 56 0 53 0;
#X connect 58 0 59 0;
#X connect 59 0 60 0;
#X connect 60 0 61 0;
#X connect 60 0 102 13;
#X connect 60 0 109 13;
#X connect 63 0 64 0;
#X connect 64 0 65 0;
#X connect 65 0 67 0;
#X connect 65 0 102 14;
#X connect 65 0 109 14;
#X connect 68 0 69 0;
#X connect 69 0 70 0;
#X connect 70 0 71 0;
#X connect 70 0 102 15;
#X connect 70 0 109 15;
#X connect 73 0 75 0;
#X connect 73 0 102 16;
#X connect 73 0 109 16;
#X connect 74 0 73 0;
#X connect 77 0 79 0;
#X connect 77 0 102 17;
#X connect 77 0 109 17;
#X connect 78 0 77 0;
#X connect 81 0 84 0;
#X connect 81 0 102 18;
#X connect 81 0 109 18;
#X connect 82 0 83 0;
#X connect 83 0 81 0;
#X connect 86 0 89 0;
#X connect 86 0 102 19;
#X connect 86 0 109 19;
#X connect 87 0 86 0;
#X connect 88 0 87 0;
#X connect 91 0 92 0;
#X connect 92 0 93 0;
#X connect 93 0 94 0;
#X connect 93 0 102 20;
#X connect 93 0 109 20;
#X connect 96 0 98 0;
#X connect 96 0 102 21;
#X connect 96 0 109 21;
#X connect 97 0 96 0;
#X connect 99 0 97 0;
#X connect 102 0 101 0;
#X connect 102 0 107 0;
#X connect 103 0 102 0;
#X connect 104 0 106 0;
#X connect 105 0 104 0;
#X connect 107 0 104 0;
#X connect 109 0 108 0;
#X connect 109 0 114 0;
#X connect 110 0 109 0;
#X connect 111 0 113 0;
#X connect 112 0 111 0;
#X connect 114 0 111 0;
#X connect 119 0 121 0;
#X connect 119 0 122 0;
#X connect 121 0 104 0;
#X connect 122 0 111 0;
#X restore 156 -71 pd randomer;
#X obj 360 70 r rpulsewidth;
#N canvas 354 28 1244 690 patchreader 0;
#X obj 522 91 textfile;
#X obj 309 -1 bng 15 250 50 0 empty empty empty 17 7 0 10 -262144 -1
-1;
#X msg 302 88 rewind;
#X floatatom 14 290 5 0 0 0 - - -;
#X floatatom 59 292 5 0 0 0 - - -;
#X floatatom 99 291 5 0 0 0 - - -;
#X floatatom 137 293 5 0 0 0 - - -;
#X floatatom 177 294 5 0 0 0 - - -;
#X floatatom 216 297 5 0 0 0 - - -;
#X floatatom 256 297 5 0 0 0 - - -;
#X floatatom 298 298 5 0 0 0 - - -;
#X floatatom 334 300 5 0 0 0 - - -;
#X floatatom 373 300 5 0 0 0 - - -;
#X floatatom 411 298 5 0 0 0 - - -;
#X floatatom 450 297 5 0 0 0 - - -;
#X floatatom 491 298 5 0 0 0 - - -;
#X floatatom 528 297 5 0 0 0 - - -;
#X floatatom 565 298 5 0 0 0 - - -;
#X floatatom 605 298 5 0 0 0 - - -;
#X floatatom 642 299 5 0 0 0 - - -;
#X floatatom 680 299 5 0 0 0 - - -;
#X floatatom 718 297 5 0 0 0 - - -;
#X floatatom 757 295 5 0 0 0 - - -;
#X floatatom 794 296 5 0 0 0 - - -;
#X obj 7 342 s rlfo;
#X obj 56 341 s rlfowave;
#X obj 90 366 s rvcomod;
#X obj 133 340 s rpulsewidth;
#X obj 172 365 s rpwmsource;
#X obj 221 341 s rsqr;
#X obj 259 366 s rsaw;
#X obj 292 342 s rsub;
#X obj 324 369 s rsuboct;
#X obj 367 344 s rnoise;
#X obj 408 371 s rfreq;
#X obj 446 346 s rres;
#X obj 488 374 s renv;
#X obj 526 349 s rmod;
#X obj 562 378 s rkybd;
#X obj 601 350 s renvgate;
#X obj 683 354 s rattack;
#X obj 754 355 s rsustain;
#X obj 796 384 s rrelease;
#X obj 375 163 unpack f f f f f f f f f f f f f f f f f f f f f;
#X obj 623 129 print list;
#X obj 557 128 print;
#X msg 406 42 print;
#X msg 207 28 read patch.txt;
#X obj 637 386 s rgatelfo;
#X obj 716 387 s rdecay;
#X obj 586 218 + 0.5;
#X obj 613 241 + 0.5;
#X obj 246 -5 bng 15 250 50 0 empty empty empty 17 7 0 10 -262144 -1
-1;
#X text 241 -32 LOAD;
#X text 307 -25 NEXT;
#X connect 0 0 43 0;
#X connect 0 0 44 0;
#X connect 0 0 45 0;
#X connect 1 0 0 0;
#X connect 2 0 0 0;
#X connect 3 0 24 0;
#X connect 4 0 25 0;
#X connect 5 0 26 0;
#X connect 6 0 27 0;
#X connect 7 0 28 0;
#X connect 8 0 29 0;
#X connect 9 0 30 0;
#X connect 10 0 31 0;
#X connect 11 0 32 0;
#X connect 12 0 33 0;
#X connect 13 0 34 0;
#X connect 14 0 35 0;
#X connect 15 0 36 0;
#X connect 16 0 37 0;
#X connect 17 0 38 0;
#X connect 18 0 39 0;
#X connect 19 0 48 0;
#X connect 20 0 40 0;
#X connect 21 0 49 0;
#X connect 22 0 41 0;
#X connect 23 0 42 0;
#X connect 43 0 3 0;
#X connect 43 1 4 0;
#X connect 43 2 5 0;
#X connect 43 3 6 0;
#X connect 43 4 7 0;
#X connect 43 5 8 0;
#X connect 43 6 9 0;
#X connect 43 7 10 0;
#X connect 43 8 11 0;
#X connect 43 9 12 0;
#X connect 43 10 13 0;
#X connect 43 11 14 0;
#X connect 43 12 15 0;
#X connect 43 13 16 0;
#X connect 43 14 17 0;
#X connect 43 15 50 0;
#X connect 43 16 51 0;
#X connect 43 17 20 0;
#X connect 43 18 21 0;
#X connect 43 19 22 0;
#X connect 43 20 23 0;
#X connect 46 0 0 0;
#X connect 47 0 0 0;
#X connect 50 0 18 0;
#X connect 51 0 19 0;
#X connect 52 0 47 0;
#X connect 52 0 2 0;
#X connect 52 0 1 0;
#X restore 147 -24 pd patchreader;
#X connect 0 0 92 4;
#X connect 1 0 92 1;
#X connect 2 0 92 2;
#X connect 3 0 92 3;
#X connect 4 0 132 1;
#X connect 13 0 57 1;
#X connect 15 0 141 0;
#X connect 15 0 227 0;
#X connect 38 0 205 0;
#X connect 38 0 202 0;
#X connect 40 0 180 0;
#X connect 40 0 191 0;
#X connect 41 0 193 1;
#X connect 42 0 207 1;
#X connect 53 0 100 0;
#X connect 56 0 57 0;
#X connect 57 0 62 0;
#X connect 58 0 222 0;
#X connect 59 0 60 0;
#X connect 60 0 124 1;
#X connect 61 0 59 0;
#X connect 62 0 74 0;
#X connect 63 0 64 1;
#X connect 64 0 61 0;
#X connect 65 0 64 1;
#X connect 66 0 64 1;
#X connect 68 0 69 1;
#X connect 69 0 124 0;
#X connect 70 0 101 0;
#X connect 70 0 94 0;
#X connect 70 0 95 0;
#X connect 70 0 97 0;
#X connect 70 0 96 0;
#X connect 70 0 178 0;
#X connect 70 0 192 0;
#X connect 70 0 209 0;
#X connect 70 0 40 0;
#X connect 72 0 88 0;
#X connect 73 0 72 0;
#X connect 74 0 132 0;
#X connect 76 0 77 0;
#X connect 77 0 58 0;
#X connect 78 0 127 1;
#X connect 79 0 125 0;
#X connect 80 0 125 0;
#X connect 80 0 129 0;
#X connect 81 0 125 1;
#X connect 81 0 126 0;
#X connect 82 0 90 0;
#X connect 82 1 89 0;
#X connect 82 2 87 0;
#X connect 82 3 91 0;
#X connect 83 0 80 0;
#X connect 83 1 79 0;
#X connect 84 0 63 0;
#X connect 84 1 65 0;
#X connect 84 2 66 0;
#X connect 85 0 86 0;
#X connect 86 0 238 0;
#X connect 87 0 88 1;
#X connect 88 0 102 0;
#X connect 89 0 88 1;
#X connect 90 0 88 1;
#X connect 91 0 88 1;
#X connect 92 0 100 1;
#X connect 92 0 133 0;
#X connect 92 0 186 0;
#X connect 93 0 100 2;
#X connect 94 0 93 1;
#X connect 95 0 93 2;
#X connect 95 0 2 0;
#X connect 96 0 93 4;
#X connect 96 0 0 0;
#X connect 97 0 93 3;
#X connect 97 0 3 0;
#X connect 97 0 4 0;
#X connect 97 0 21 0;
#X connect 98 0 142 1;
#X connect 99 0 77 1;
#X connect 99 1 112 0;
#X connect 99 2 112 0;
#X connect 99 3 112 0;
#X connect 100 0 74 1;
#X connect 101 0 17 0;
#X connect 101 0 67 0;
#X connect 101 0 71 0;
#X connect 101 0 53 0;
#X connect 101 0 48 0;
#X connect 101 0 1 0;
#X connect 103 0 56 0;
#X connect 104 0 64 0;
#X connect 105 0 62 2;
#X connect 106 0 69 0;
#X connect 107 0 84 0;
#X connect 108 0 60 1;
#X connect 111 0 76 0;
#X connect 113 0 58 1;
#X connect 114 0 99 0;
#X connect 115 0 116 0;
#X connect 116 0 121 0;
#X connect 117 0 211 0;
#X connect 117 1 198 0;
#X connect 117 2 198 0;
#X connect 117 3 197 0;
#X connect 117 4 198 0;
#X connect 118 0 117 0;
#X connect 119 0 115 0;
#X connect 119 0 123 0;
#X connect 119 0 145 0;
#X connect 119 0 143 0;
#X connect 120 0 116 1;
#X connect 121 0 122 0;
#X connect 122 0 117 2;
#X connect 123 0 117 4;
#X connect 124 0 62 0;
#X connect 125 0 129 0;
#X connect 127 0 81 0;
#X connect 127 0 128 0;
#X connect 129 0 215 0;
#X connect 130 0 131 0;
#X connect 131 0 92 0;
#X connect 131 0 93 0;
#X connect 132 0 75 0;
#X connect 132 0 75 1;
#X connect 133 0 134 0;
#X connect 134 0 136 0;
#X connect 135 0 99 3;
#X connect 137 0 138 0;
#X connect 138 0 139 0;
#X connect 139 0 77 1;
#X connect 140 0 135 0;
#X connect 142 0 72 1;
#X connect 143 0 146 0;
#X connect 144 0 146 1;
#X connect 144 0 145 1;
#X connect 145 0 147 0;
#X connect 146 0 150 0;
#X connect 147 0 148 0;
#X connect 148 0 149 0;
#X connect 149 0 153 0;
#X connect 150 0 151 0;
#X connect 151 0 152 0;
#X connect 152 0 153 1;
#X connect 153 0 154 0;
#X connect 154 0 155 0;
#X connect 155 0 117 1;
#X connect 156 0 161 1;
#X connect 157 0 158 0;
#X connect 158 0 165 0;
#X connect 159 0 167 0;
#X connect 160 0 163 0;
#X connect 161 0 164 0;
#X connect 162 0 160 0;
#X connect 163 0 166 0;
#X connect 164 0 160 1;
#X connect 165 0 159 0;
#X connect 166 0 157 0;
#X connect 167 0 168 0;
#X connect 168 0 169 0;
#X connect 169 0 117 3;
#X connect 170 0 161 0;
#X connect 171 0 127 0;
#X connect 172 0 174 0;
#X connect 173 0 99 1;
#X connect 174 0 173 0;
#X connect 175 0 130 0;
#X connect 176 0 85 0;
#X connect 176 0 196 0;
#X connect 176 2 175 0;
#X connect 178 0 38 0;
#X connect 179 0 62 1;
#X connect 180 0 241 0;
#X connect 181 0 185 1;
#X connect 182 0 179 1;
#X connect 183 0 179 1;
#X connect 184 0 185 1;
#X connect 185 0 62 1;
#X connect 186 0 187 0;
#X connect 187 0 188 1;
#X connect 188 0 189 1;
#X connect 189 0 179 0;
#X connect 190 0 188 0;
#X connect 190 0 189 0;
#X connect 191 0 190 1;
#X connect 192 0 8 0;
#X connect 193 0 195 0;
#X connect 194 0 185 0;
#X connect 194 0 190 0;
#X connect 195 0 194 0;
#X connect 196 0 199 0;
#X connect 197 0 162 0;
#X connect 198 0 162 0;
#X connect 199 0 200 0;
#X connect 200 0 201 0;
#X connect 201 0 203 0;
#X connect 202 0 204 0;
#X connect 203 0 202 1;
#X connect 204 0 207 0;
#X connect 205 0 206 0;
#X connect 206 0 194 1;
#X connect 207 0 205 1;
#X connect 208 0 38 0;
#X connect 209 0 208 0;
#X connect 210 0 73 1;
#X connect 212 0 172 0;
#X connect 213 0 73 0;
#X connect 214 0 135 1;
#X connect 214 0 173 1;
#X connect 217 0 130 0;
#X connect 219 0 171 0;
#X connect 219 0 78 0;
#X connect 220 0 83 0;
#X connect 221 0 62 0;
#X connect 223 0 224 0;
#X connect 224 0 193 0;
#X connect 225 0 223 0;
#X connect 226 0 99 2;
#X connect 230 0 170 0;
#X connect 230 0 156 0;
#X connect 231 0 137 0;
#X connect 232 0 231 0;
#X connect 233 0 120 0;
#X connect 234 0 142 0;
#X connect 235 0 82 0;
#X connect 236 0 98 0;
#X connect 237 0 142 1;
#X connect 241 0 181 0;
#X connect 241 0 182 0;
#X connect 241 1 183 0;
#X connect 241 1 184 0;
#X connect 243 0 15 0;
#X coords 0 -1 1 1 900 200 1 100 100;
