#N canvas 597 40 647 436 10;
#X obj 154 33 inlet;
#X obj 154 89 moses;
#X obj 155 62 - 2;
#X obj 154 133 moses;
#X obj 154 113 + 1;
#X obj 154 155 bng 15 250 50 0 empty empty empty 17 7 0 10 -262144
-1 -1;
#X obj 180 155 bng 15 250 50 0 empty empty empty 17 7 0 10 -262144
-1 -1;
#X obj 203 133 moses;
#X obj 203 156 bng 15 250 50 0 empty empty empty 17 7 0 10 -262144
-1 -1;
#X obj 230 156 bng 15 250 50 0 empty empty empty 17 7 0 10 -262144
-1 -1;
#X obj 202 112 - 1;
#X msg 141 183 1;
#X msg 138 211 0;
#X msg 231 185 1;
#X msg 230 210 0;
#X msg 205 179 1;
#X msg 202 214 0;
#X msg 174 183 1;
#X msg 173 208 0;
#X obj 135 284 *~;
#X obj 172 283 *~;
#X obj 411 331 *~;
#X obj 238 285 *~;
#X obj 243 35 inlet~;
#X obj 295 37 inlet~;
#X obj 343 39 inlet~;
#X obj 393 39 inlet~;
#X obj 154 329 +~;
#X obj 209 324 +~;
#X obj 180 363 +~;
#X obj 177 400 outlet~;
#X obj 234 401 outlet;
#X obj 290 402 outlet;
#X obj 342 404 outlet;
#X obj 389 402 outlet;
#X text 21 18 ___BANGS__;
#X text 13 4 # 1 2 3 4;
#X text 8 38 sig 1 2 3 4;
#X connect 0 0 2 0;
#X connect 1 0 4 0;
#X connect 1 1 10 0;
#X connect 2 0 1 0;
#X connect 3 0 5 0;
#X connect 3 1 6 0;
#X connect 4 0 3 0;
#X connect 5 0 11 0;
#X connect 5 0 12 0;
#X connect 5 0 31 0;
#X connect 6 0 17 0;
#X connect 6 0 18 0;
#X connect 6 0 32 0;
#X connect 7 0 8 0;
#X connect 7 1 9 0;
#X connect 8 0 15 0;
#X connect 8 0 16 0;
#X connect 8 0 33 0;
#X connect 9 0 13 0;
#X connect 9 0 14 0;
#X connect 9 0 34 0;
#X connect 10 0 7 0;
#X connect 11 0 19 1;
#X connect 12 0 20 1;
#X connect 12 0 21 1;
#X connect 12 0 22 1;
#X connect 13 0 22 1;
#X connect 14 0 20 1;
#X connect 14 0 21 1;
#X connect 14 0 19 1;
#X connect 15 0 21 1;
#X connect 16 0 20 1;
#X connect 16 0 19 1;
#X connect 16 0 22 1;
#X connect 17 0 20 1;
#X connect 18 0 19 1;
#X connect 18 0 22 1;
#X connect 18 0 21 1;
#X connect 19 0 27 0;
#X connect 20 0 27 1;
#X connect 21 0 28 0;
#X connect 22 0 28 1;
#X connect 23 0 19 0;
#X connect 24 0 20 0;
#X connect 25 0 21 0;
#X connect 26 0 22 0;
#X connect 27 0 29 0;
#X connect 28 0 29 1;
#X connect 29 0 30 0;
#X coords 0 -1 1 1 85 60 2 0 0;
